<svg id="svg" version="1.1" xmlns="http://www.w3.org/2000/svg" xmlns:xlink="http://www.w3.org/1999/xlink" width="400" height="400" viewBox="0, 0, 400,400"><g id="svgg"><path id="path0" d="M73.843 75.578 C 62.572 78.040,53.651 86.466,50.529 97.600 C 49.550 101.090,49.375 308.090,50.347 312.000 C 57.451 340.571,97.976 341.990,107.455 313.999 C 108.165 311.902,108.209 308.909,108.400 249.497 L 108.600 187.195 139.276 217.897 C 156.147 234.784,177.109 255.890,185.858 264.800 C 218.928 298.481,244.917 324.226,247.600 325.962 C 257.052 332.078,265.673 334.574,277.400 334.590 L 284.600 334.600 284.731 333.674 C 284.834 332.950,284.118 332.052,281.447 329.553 C 275.902 324.365,272.369 319.094,270.352 313.000 C 269.435 310.229,269.423 309.946,269.205 285.800 L 268.985 261.400 267.903 258.200 C 265.713 251.725,265.615 251.610,241.201 227.000 C 212.803 198.373,198.015 183.337,194.978 180.000 C 193.676 178.570,189.004 173.710,184.597 169.200 C 167.727 151.939,154.421 138.057,138.205 120.800 C 136.034 118.490,132.706 114.980,130.809 113.000 C 128.912 111.020,122.059 103.743,115.580 96.828 C 102.805 83.195,100.259 80.848,95.625 78.437 C 89.181 75.085,81.011 74.012,73.843 75.578 " stroke="none" fill="#04c3e3" fill-rule="evenodd"></path><path id="path1" d="M135.982 73.190 C 113.821 73.425,114.577 73.321,113.333 76.298 C 112.385 78.568,108.699 74.392,149.555 117.337 L 167.310 136.000 199.378 136.000 C 233.595 136.000,233.241 135.980,232.639 137.877 C 232.422 138.561,210.875 159.945,196.577 173.666 L 192.553 177.527 194.977 180.062 C 199.219 184.499,240.186 226.196,240.409 226.304 C 240.526 226.361,252.408 214.761,266.811 200.527 C 324.092 143.918,341.955 126.022,343.612 123.582 C 355.636 105.877,347.371 81.273,327.000 74.123 L 323.800 73.000 239.800 72.990 C 193.600 72.985,146.882 73.075,135.982 73.190 M326.575 156.500 L 325.400 157.800 326.700 156.625 C 327.415 155.979,328.000 155.394,328.000 155.325 C 328.000 155.016,327.670 155.288,326.575 156.500 M136.783 234.985 C 121.580 250.494,122.690 246.850,122.394 282.200 C 122.140 312.532,122.273 311.063,119.217 317.482 C 117.346 321.412,115.325 324.431,112.042 328.200 C 102.353 339.324,124.465 335.438,141.159 323.084 C 146.056 319.459,193.400 273.850,193.400 272.756 C 193.400 272.588,184.220 263.165,173.000 251.817 C 161.780 240.470,151.250 229.787,149.600 228.078 L 146.600 224.970 136.783 234.985 M199.200 278.600 C 200.617 280.030,201.867 281.200,201.977 281.200 C 202.087 281.200,201.017 280.030,199.600 278.600 C 198.183 277.170,196.933 276.000,196.823 276.000 C 196.713 276.000,197.783 277.170,199.200 278.600 " stroke="none" fill="#9b9c9c" fill-rule="evenodd"></path><path id="path2" d="M334.087 149.680 C 312.392 170.858,288.094 195.466,287.363 197.000 C 286.624 198.550,286.600 200.347,286.600 255.000 L 286.600 311.400 287.507 314.000 C 288.956 318.152,294.452 326.708,295.717 326.782 C 295.892 326.792,296.983 327.516,298.142 328.391 C 300.504 330.174,305.177 332.419,308.200 333.222 C 310.447 333.819,321.812 334.092,322.784 333.573 C 323.123 333.391,324.570 332.871,326.000 332.417 C 330.947 330.845,338.561 325.356,339.930 322.375 C 340.189 321.811,340.715 320.994,341.100 320.560 C 341.485 320.125,341.860 319.506,341.933 319.186 C 342.006 318.865,342.268 318.359,342.515 318.061 C 342.763 317.763,342.998 317.312,343.038 317.060 C 343.078 316.807,343.501 315.453,343.976 314.051 C 344.452 312.649,344.952 310.849,345.087 310.051 C 345.679 306.545,345.624 142.367,345.030 141.773 C 343.742 140.485,342.834 141.141,334.087 149.680 " stroke="none" fill="#92d304" fill-rule="evenodd"></path><path id="path3" d="M0.000 200.000 L 0.000 400.000 200.000 400.000 L 400.000 400.000 400.000 200.000 L 400.000 0.000 200.000 0.000 L 0.000 0.000 0.000 200.000 M327.000 74.123 C 347.369 81.272,355.635 105.877,343.615 123.578 C 341.840 126.192,325.348 142.663,246.211 220.859 L 240.623 226.381 252.216 238.090 C 264.738 250.739,265.872 252.193,267.901 258.200 L 268.982 261.400 269.207 285.800 L 269.433 310.200 270.534 313.367 C 272.646 319.439,276.570 325.170,281.938 330.021 C 286.649 334.278,286.111 335.018,278.400 334.887 C 265.170 334.661,254.136 331.161,245.452 324.433 C 243.837 323.182,203.573 283.115,195.482 274.707 L 193.659 272.813 171.930 294.134 C 141.116 324.368,138.149 326.811,126.866 331.231 C 112.253 336.955,105.601 335.595,112.042 328.200 C 115.325 324.431,117.346 321.412,119.217 317.482 C 122.273 311.063,122.140 312.532,122.394 282.200 C 122.691 246.819,121.589 250.430,136.768 235.088 L 146.575 225.176 127.487 206.089 L 108.400 187.001 108.400 248.437 C 108.400 308.260,108.379 309.953,107.612 312.954 C 100.333 341.414,58.492 341.301,50.527 312.800 C 49.404 308.784,49.394 101.675,50.516 97.600 C 55.774 78.501,77.520 69.212,95.514 78.377 C 100.102 80.714,102.212 82.589,112.252 93.252 C 121.542 103.118,125.281 107.074,150.200 133.405 C 162.830 146.751,188.419 173.215,191.555 176.174 L 192.799 177.349 196.694 173.574 C 215.704 155.154,232.426 138.547,232.639 137.877 C 233.241 135.980,233.595 136.000,199.378 136.000 L 167.310 136.000 149.555 117.337 C 108.699 74.392,112.385 78.568,113.333 76.298 C 114.783 72.828,109.170 72.975,239.800 72.990 L 323.800 73.000 327.000 74.123 M345.407 142.112 C 346.090 144.923,345.387 310.642,344.682 313.000 C 336.219 341.299,296.529 341.711,286.950 313.600 C 286.231 311.490,286.200 309.085,286.200 254.800 L 286.200 198.200 287.288 196.349 C 288.434 194.400,340.448 142.480,342.569 141.168 C 343.933 140.324,345.063 140.700,345.407 142.112 " stroke="none" fill="#fbfbfb" fill-rule="evenodd"></path><path id="path4" d="M326.526 156.738 C 304.807 178.005,288.201 194.769,287.636 196.000 L 287.177 197.000 287.857 196.000 C 288.607 194.898,320.354 163.090,334.087 149.682 C 342.615 141.355,344.218 140.162,344.937 141.610 C 345.049 141.835,345.095 141.791,345.039 141.510 C 344.595 139.265,343.195 140.417,326.526 156.738 M286.194 254.600 C 286.194 284.960,286.242 297.439,286.300 282.331 C 286.358 267.223,286.358 242.383,286.300 227.131 C 286.242 211.879,286.194 224.240,286.194 254.600 M288.000 316.149 C 288.000 316.581,289.589 319.600,289.816 319.600 C 289.926 319.600,289.630 318.835,289.159 317.900 C 288.232 316.061,288.000 315.711,288.000 316.149 M290.206 320.400 C 290.830 321.518,293.917 325.433,294.636 326.018 C 295.029 326.338,294.215 325.160,292.828 323.400 C 290.113 319.955,289.686 319.467,290.206 320.400 M336.786 325.900 L 334.600 328.200 336.900 326.014 C 339.037 323.982,339.383 323.600,339.086 323.600 C 339.024 323.600,337.989 324.635,336.786 325.900 M296.144 327.109 C 296.460 327.621,298.800 329.353,298.800 329.075 C 298.800 328.976,298.139 328.391,297.332 327.775 C 296.524 327.159,295.989 326.859,296.144 327.109 M314.100 334.294 C 315.145 334.376,316.855 334.376,317.900 334.294 C 318.945 334.212,318.090 334.144,316.000 334.144 C 313.910 334.144,313.055 334.212,314.100 334.294 " stroke="none" fill="#6fa70b" fill-rule="evenodd"></path></g></svg>