<svg id="svg" version="1.1" xmlns="http://www.w3.org/2000/svg" xmlns:xlink="http://www.w3.org/1999/xlink" width="400" height="400" viewBox="0, 0, 400,400"><g id="svgg"><path id="path0" d="M115.600 72.800 C 115.600 73.020,115.317 73.200,114.971 73.200 C 114.177 73.200,113.200 74.158,113.200 74.938 C 113.200 75.265,112.979 75.607,112.709 75.697 C 111.667 76.044,112.136 79.031,113.425 80.255 C 114.088 80.885,115.053 82.002,115.570 82.738 C 116.086 83.473,118.284 85.866,120.454 88.054 C 122.624 90.243,124.400 92.212,124.400 92.429 C 124.400 92.647,124.678 92.932,125.018 93.062 C 125.682 93.317,129.200 96.710,129.200 97.095 C 129.200 97.222,130.460 98.566,132.000 100.082 C 133.540 101.598,134.800 102.906,134.800 102.989 C 134.800 103.072,135.857 104.223,137.149 105.547 C 138.440 106.871,139.605 108.235,139.736 108.577 C 139.867 108.920,140.164 109.200,140.396 109.200 C 140.910 109.200,145.200 113.438,145.200 113.945 C 145.200 114.145,147.360 116.495,150.000 119.167 C 152.640 121.840,154.800 124.192,154.800 124.393 C 154.800 124.595,155.056 124.904,155.368 125.080 C 156.354 125.635,160.400 129.578,160.400 129.984 C 160.400 130.197,160.760 130.565,161.200 130.800 C 161.640 131.035,162.000 131.411,162.000 131.635 C 162.000 131.858,163.015 132.977,164.255 134.120 L 166.509 136.200 198.955 136.400 L 231.400 136.600 231.528 137.501 C 231.659 138.421,230.809 139.600,230.016 139.600 C 229.773 139.600,229.469 139.877,229.339 140.215 C 229.060 140.943,221.744 148.398,221.303 148.404 C 221.136 148.406,220.370 149.124,219.600 150.000 C 218.830 150.876,218.069 151.594,217.908 151.596 C 217.748 151.598,212.933 156.280,207.208 162.000 C 201.483 167.720,196.653 172.400,196.476 172.400 C 196.299 172.400,195.624 173.116,194.977 173.991 C 194.330 174.865,193.665 175.585,193.500 175.591 C 191.617 175.650,193.851 178.277,207.360 191.895 C 213.087 197.667,218.009 202.842,218.299 203.395 C 218.589 203.948,219.071 204.400,219.371 204.400 C 219.672 204.400,220.491 205.075,221.193 205.900 C 224.380 209.647,240.995 226.000,241.615 226.000 C 241.996 226.000,248.811 219.539,256.759 211.641 C 264.706 203.744,271.477 197.179,271.804 197.054 C 272.132 196.928,272.400 196.643,272.400 196.421 C 272.400 195.932,289.751 178.516,291.429 177.322 C 293.373 175.937,343.600 125.655,343.600 125.093 C 343.600 124.809,343.960 124.317,344.400 124.000 C 344.840 123.683,345.200 123.143,345.200 122.800 C 345.200 122.457,345.560 121.917,346.000 121.600 C 346.440 121.283,346.800 120.649,346.800 120.191 C 346.800 119.208,347.670 117.208,348.100 117.203 C 348.265 117.201,348.400 116.581,348.400 115.824 C 348.400 115.067,348.580 114.336,348.800 114.200 C 349.020 114.064,349.200 113.603,349.200 113.176 C 349.200 112.749,349.364 112.400,349.564 112.400 C 350.061 112.400,350.081 98.497,349.585 98.191 C 349.373 98.060,349.200 97.603,349.200 97.176 C 349.200 96.749,349.020 96.400,348.800 96.400 C 348.580 96.400,348.400 95.680,348.400 94.800 C 348.400 93.920,348.220 93.200,348.000 93.200 C 347.780 93.200,347.600 92.840,347.600 92.400 C 347.600 91.960,347.420 91.600,347.200 91.600 C 346.980 91.600,346.800 91.184,346.800 90.675 C 346.800 90.167,346.440 89.364,346.000 88.892 C 345.560 88.420,345.200 87.796,345.200 87.505 C 345.200 87.214,344.840 86.717,344.400 86.400 C 343.960 86.083,343.600 85.612,343.600 85.353 C 343.600 84.590,336.046 77.200,335.265 77.200 C 334.872 77.200,334.164 76.840,333.692 76.400 C 333.220 75.960,332.638 75.600,332.400 75.600 C 332.162 75.600,331.580 75.240,331.108 74.800 C 330.608 74.334,329.696 74.000,328.925 74.000 C 328.196 74.000,327.599 73.865,327.597 73.700 C 327.583 72.413,326.515 72.400,220.520 72.400 C 150.840 72.400,115.600 72.534,115.600 72.800 M333.861 148.031 C 329.274 152.634,325.269 156.400,324.961 156.400 C 324.652 156.400,324.400 156.683,324.400 157.029 C 324.400 157.735,323.469 158.800,322.852 158.800 C 322.313 158.800,321.897 159.510,322.173 159.957 C 322.385 160.300,329.708 153.438,338.171 144.967 C 342.647 140.487,343.038 140.246,344.830 140.870 L 346.082 141.307 345.990 147.553 C 345.690 167.949,346.049 309.617,346.400 309.400 C 346.665 309.236,346.800 280.830,346.800 225.476 L 346.799 141.800 345.853 140.700 C 343.800 138.312,343.146 138.712,333.861 148.031 M320.516 161.200 C 320.401 161.640,320.041 162.000,319.716 162.000 C 319.391 162.000,319.035 162.343,318.926 162.763 C 318.816 163.183,318.383 163.616,317.963 163.726 C 317.173 163.932,316.887 164.800,317.609 164.800 C 318.033 164.800,322.000 161.033,322.000 160.629 C 322.000 160.005,320.697 160.506,320.516 161.200 M315.716 166.000 C 315.601 166.440,315.268 166.800,314.976 166.800 C 314.684 166.800,314.134 167.327,313.753 167.971 C 313.373 168.616,312.732 169.229,312.331 169.334 C 311.929 169.439,311.600 169.791,311.600 170.116 C 311.600 170.441,311.240 170.801,310.800 170.916 C 310.017 171.121,309.655 172.000,310.353 172.000 C 310.768 172.000,317.200 165.864,317.200 165.469 C 317.200 164.816,315.904 165.280,315.716 166.000 M308.526 173.163 C 308.416 173.583,307.983 174.016,307.563 174.126 C 306.790 174.328,306.480 175.200,307.182 175.200 C 307.678 175.200,309.600 173.278,309.600 172.782 C 309.600 172.080,308.728 172.390,308.526 173.163 M305.384 176.027 C 305.239 176.261,305.202 176.535,305.303 176.636 C 305.582 176.915,306.800 176.363,306.800 175.957 C 306.800 175.456,305.703 175.510,305.384 176.027 M303.716 178.000 C 303.601 178.440,303.245 178.800,302.925 178.800 C 302.176 178.800,301.200 179.776,301.200 180.525 C 301.200 180.845,300.840 181.201,300.400 181.316 C 299.960 181.431,299.600 181.812,299.600 182.163 C 299.600 183.100,300.136 182.943,301.179 181.700 C 301.687 181.095,302.837 179.835,303.735 178.900 C 304.983 177.599,305.197 177.200,304.646 177.200 C 304.249 177.200,303.831 177.560,303.716 178.000 M298.200 183.200 C 298.064 183.420,298.076 183.799,298.226 184.043 C 298.495 184.478,299.179 183.811,299.194 183.100 C 299.203 182.662,298.488 182.733,298.200 183.200 M296.526 185.163 C 296.416 185.583,295.983 186.016,295.563 186.126 C 294.817 186.321,294.469 187.200,295.138 187.200 C 295.696 187.200,297.600 185.411,297.600 184.887 C 297.600 184.106,296.744 184.326,296.526 185.163 M293.316 188.400 C 293.201 188.840,292.852 189.200,292.541 189.200 C 292.230 189.200,291.856 189.515,291.710 189.900 C 291.373 190.789,290.789 191.373,289.900 191.710 C 289.515 191.856,289.200 192.251,289.200 192.587 C 289.200 192.924,288.924 193.200,288.587 193.200 C 288.251 193.200,287.855 193.515,287.708 193.900 C 287.561 194.285,287.116 194.949,286.720 195.375 C 285.972 196.181,285.755 197.200,286.332 197.200 C 286.515 197.200,286.916 196.705,287.222 196.100 C 287.529 195.495,289.269 193.495,291.090 191.656 C 292.910 189.817,294.400 188.152,294.400 187.956 C 294.400 187.256,293.521 187.615,293.316 188.400 M285.498 198.236 C 285.035 198.698,285.128 310.708,285.590 310.994 C 285.994 311.243,286.394 201.284,285.998 199.069 C 285.886 198.447,285.661 198.072,285.498 198.236 M143.414 226.841 C 142.636 227.524,142.000 228.212,142.000 228.370 C 142.000 228.706,135.287 235.600,134.960 235.600 C 134.696 235.600,132.400 237.859,132.400 238.119 C 132.400 238.218,130.960 239.763,129.200 241.551 C 127.440 243.340,126.000 245.072,126.000 245.402 C 126.000 245.731,125.865 246.001,125.700 246.003 C 125.389 246.006,124.400 247.903,124.400 248.496 C 124.400 248.682,124.040 249.220,123.600 249.692 C 123.160 250.164,122.800 251.046,122.800 251.652 C 122.800 252.257,122.620 252.864,122.400 253.000 C 122.140 253.161,122.000 262.596,122.000 280.000 C 122.000 297.404,121.860 306.839,121.600 307.000 C 121.380 307.136,121.200 307.946,121.200 308.800 C 121.200 309.654,121.020 310.464,120.800 310.600 C 120.580 310.736,120.400 311.557,120.400 312.424 C 120.400 313.291,120.220 314.000,120.000 314.000 C 119.780 314.000,119.600 314.360,119.600 314.800 C 119.600 315.240,119.420 315.600,119.200 315.600 C 118.980 315.600,118.800 315.878,118.800 316.217 C 118.800 316.556,118.440 317.220,118.000 317.692 C 117.560 318.164,117.200 318.927,117.200 319.387 C 117.200 319.847,116.850 320.476,116.421 320.785 C 115.993 321.093,115.727 321.481,115.829 321.647 C 115.931 321.813,115.562 322.402,115.008 322.956 C 114.453 323.510,114.000 324.166,114.000 324.414 C 114.000 324.661,112.920 325.944,111.600 327.264 C 110.280 328.584,109.200 329.922,109.200 330.237 C 109.200 330.553,108.984 331.157,108.719 331.581 C 108.226 332.371,108.719 333.878,109.871 335.100 C 110.440 335.703,115.600 335.793,115.600 335.200 C 115.600 334.980,116.579 334.800,117.776 334.800 C 118.973 334.800,120.064 334.620,120.200 334.400 C 120.336 334.180,120.876 334.000,121.400 334.000 C 121.924 334.000,122.464 333.820,122.600 333.600 C 122.736 333.380,123.377 333.200,124.024 333.200 C 124.671 333.200,125.200 333.020,125.200 332.800 C 125.200 332.580,125.740 332.400,126.400 332.400 C 127.060 332.400,127.601 332.265,127.603 332.100 C 127.607 331.711,129.570 330.800,130.404 330.800 C 130.759 330.800,131.436 330.440,131.908 330.000 C 132.380 329.560,133.044 329.200,133.383 329.200 C 133.722 329.200,134.000 329.020,134.000 328.800 C 134.000 328.580,134.360 328.400,134.800 328.400 C 135.240 328.400,135.600 328.220,135.600 328.000 C 135.600 327.780,135.825 327.600,136.100 327.600 C 136.375 327.599,137.140 327.134,137.800 326.565 C 138.460 325.996,139.495 325.237,140.100 324.879 C 140.705 324.521,141.200 324.086,141.200 323.914 C 141.200 323.741,141.484 323.600,141.831 323.600 C 142.179 323.600,143.176 322.880,144.047 322.000 C 144.918 321.120,145.796 320.400,145.998 320.400 C 146.199 320.400,149.247 317.527,152.771 314.016 C 156.295 310.505,159.634 307.334,160.189 306.970 C 160.745 306.606,161.200 306.159,161.200 305.976 C 161.200 305.510,166.197 300.563,166.967 300.268 C 167.315 300.134,167.600 299.749,167.600 299.413 C 167.600 299.076,167.843 298.800,168.141 298.800 C 168.739 298.800,180.400 287.440,180.400 286.858 C 180.400 286.656,180.869 286.185,181.442 285.809 C 182.015 285.434,184.220 283.378,186.342 281.242 C 188.464 279.106,190.515 277.238,190.900 277.092 C 191.285 276.945,191.600 276.549,191.600 276.213 C 191.600 275.867,191.948 275.600,192.400 275.600 C 193.009 275.600,193.197 275.338,193.187 274.500 C 193.170 273.013,193.149 272.989,183.488 263.200 C 178.820 258.470,174.616 254.150,174.147 253.600 C 173.678 253.050,172.058 251.400,170.547 249.933 C 169.036 248.466,162.953 242.391,157.028 236.433 C 145.545 224.884,145.599 224.923,143.414 226.841 M345.200 311.424 C 345.200 312.004,345.373 312.340,345.600 312.200 C 345.820 312.064,346.000 311.603,346.000 311.176 C 346.000 310.749,345.820 310.400,345.600 310.400 C 345.380 310.400,345.200 310.861,345.200 311.424 M286.000 313.405 C 286.000 313.958,286.180 314.768,286.400 315.205 C 286.620 315.642,286.980 316.358,287.200 316.795 C 287.420 317.232,287.600 317.862,287.600 318.195 C 287.600 318.528,287.780 318.800,288.000 318.800 C 288.220 318.800,288.400 319.059,288.400 319.376 C 288.400 319.693,288.580 320.064,288.800 320.200 C 289.499 320.632,289.232 318.586,288.484 317.775 C 288.090 317.349,287.522 315.965,287.220 314.700 C 286.655 312.328,286.000 311.633,286.000 313.405 M344.400 314.520 C 344.400 315.574,343.547 317.592,343.100 317.597 C 342.935 317.599,342.800 318.050,342.800 318.600 C 342.800 319.150,342.980 319.600,343.200 319.600 C 343.420 319.600,343.604 319.195,343.609 318.700 C 343.614 318.205,343.970 317.350,344.400 316.800 C 345.219 315.753,345.488 313.600,344.800 313.600 C 344.580 313.600,344.400 314.014,344.400 314.520 M341.700 320.598 C 341.184 321.185,341.026 322.000,341.429 322.000 C 341.821 322.000,342.800 320.878,342.800 320.429 C 342.800 319.840,342.300 319.917,341.700 320.598 M289.448 320.686 C 289.016 321.118,289.170 321.450,290.400 322.737 C 291.060 323.428,291.600 324.138,291.600 324.315 C 291.600 324.772,294.552 327.600,295.029 327.600 C 295.246 327.600,295.683 327.960,296.000 328.400 C 296.317 328.840,296.831 329.200,297.141 329.200 C 297.452 329.200,297.997 329.516,298.353 329.903 C 298.709 330.289,299.495 330.860,300.100 331.170 C 300.705 331.481,301.200 331.885,301.200 332.068 C 301.200 332.250,301.560 332.400,302.000 332.400 C 302.440 332.400,302.800 332.580,302.800 332.800 C 302.800 333.020,303.250 333.200,303.800 333.200 C 304.350 333.200,304.800 333.020,304.800 332.800 C 304.800 332.580,304.451 332.400,304.024 332.400 C 303.597 332.400,303.136 332.220,303.000 332.000 C 302.864 331.780,302.403 331.600,301.976 331.600 C 301.549 331.600,301.200 331.462,301.200 331.294 C 301.200 331.126,300.480 330.544,299.600 330.000 C 298.720 329.456,297.997 328.919,297.992 328.806 C 297.988 328.693,297.092 328.060,296.000 327.400 C 294.908 326.740,294.012 326.071,294.008 325.914 C 294.003 325.757,293.627 325.217,293.171 324.714 C 292.715 324.211,291.746 323.044,291.018 322.119 C 290.291 321.195,289.584 320.550,289.448 320.686 M339.300 323.982 C 338.585 324.816,338.000 325.610,338.000 325.749 C 338.000 326.322,339.245 325.945,339.485 325.300 C 339.628 324.915,340.072 324.309,340.472 323.953 C 341.201 323.305,341.464 322.370,340.900 322.434 C 340.735 322.452,340.015 323.149,339.300 323.982 M336.874 326.696 C 336.584 326.799,335.654 327.585,334.805 328.442 C 333.957 329.299,332.934 330.004,332.531 330.009 C 332.129 330.014,331.350 330.370,330.800 330.800 C 330.250 331.230,329.575 331.586,329.300 331.591 C 329.025 331.596,328.800 331.780,328.800 332.000 C 328.800 332.220,328.530 332.400,328.200 332.400 C 327.870 332.400,327.600 332.580,327.600 332.800 C 327.600 333.020,327.960 333.200,328.400 333.200 C 328.840 333.200,329.200 333.041,329.200 332.847 C 329.200 332.652,329.515 332.390,329.900 332.264 C 331.111 331.868,334.500 329.751,335.681 328.653 C 336.304 328.074,336.980 327.600,337.183 327.600 C 337.686 327.600,338.087 326.897,337.707 326.682 C 337.538 326.586,337.163 326.593,336.874 326.696 M305.400 333.600 C 305.536 333.820,305.986 334.000,306.400 334.000 C 306.814 334.000,307.264 334.180,307.400 334.400 C 307.536 334.620,308.447 334.800,309.424 334.800 C 310.401 334.800,311.200 334.620,311.200 334.400 C 311.200 334.180,310.300 334.000,309.200 334.000 C 308.100 334.000,307.200 333.820,307.200 333.600 C 307.200 333.380,306.739 333.200,306.176 333.200 C 305.596 333.200,305.260 333.373,305.400 333.600 M324.645 333.488 C 324.487 333.646,324.052 333.796,323.679 333.820 C 323.305 333.844,322.494 333.894,321.876 333.932 C 321.242 333.970,320.860 334.174,321.000 334.400 C 321.406 335.057,323.748 334.854,325.429 334.016 C 326.852 333.305,326.903 333.230,325.967 333.216 C 325.398 333.207,324.804 333.330,324.645 333.488 " stroke="none" fill="#9b9c9c" fill-rule="evenodd"></path><path id="path1" d="M342.800 140.689 C 342.470 140.814,340.387 142.735,338.171 144.958 C 330.766 152.387,322.423 160.290,322.211 160.077 C 322.095 159.961,322.000 160.090,322.000 160.363 C 322.000 160.955,318.195 164.800,317.609 164.800 C 317.384 164.800,317.200 165.003,317.200 165.252 C 317.200 165.664,313.431 169.504,310.561 172.017 C 309.923 172.576,309.135 173.432,308.811 173.918 C 308.487 174.405,307.902 174.904,307.511 175.028 C 307.120 175.152,306.800 175.512,306.800 175.827 C 306.800 176.142,306.632 176.400,306.427 176.400 C 306.054 176.400,303.197 179.284,301.295 181.580 C 300.739 182.251,300.052 182.800,299.769 182.800 C 299.486 182.800,299.139 183.163,298.998 183.606 C 298.857 184.049,298.575 184.308,298.370 184.182 C 298.166 184.055,297.836 184.368,297.638 184.876 C 297.440 185.384,296.863 186.070,296.356 186.400 C 295.848 186.730,294.976 187.518,294.417 188.150 C 293.858 188.783,292.095 190.595,290.500 192.176 C 288.905 193.758,287.600 195.232,287.600 195.451 C 287.600 195.670,287.236 196.240,286.791 196.718 C 286.127 197.430,286.000 198.039,286.085 200.093 C 286.429 208.420,285.952 311.218,285.570 310.982 C 285.334 310.836,285.378 311.095,285.667 311.558 C 285.956 312.021,286.300 312.400,286.432 312.400 C 286.564 312.400,286.919 313.435,287.220 314.700 C 287.522 315.965,288.090 317.349,288.484 317.775 C 288.878 318.202,289.200 319.068,289.200 319.699 C 289.200 320.331,289.335 320.768,289.500 320.671 C 289.665 320.575,290.340 321.210,291.000 322.085 C 291.660 322.959,292.605 324.115,293.100 324.655 C 293.595 325.195,294.003 325.763,294.008 325.918 C 294.012 326.073,294.908 326.740,296.000 327.400 C 297.092 328.060,297.988 328.693,297.992 328.806 C 297.997 328.919,298.720 329.456,299.600 330.000 C 300.480 330.544,301.200 331.126,301.200 331.294 C 301.200 331.462,301.549 331.600,301.976 331.600 C 302.403 331.600,302.864 331.780,303.000 332.000 C 303.136 332.220,303.597 332.400,304.024 332.400 C 304.451 332.400,304.800 332.580,304.800 332.800 C 304.800 333.020,305.340 333.200,306.000 333.200 C 306.660 333.200,307.200 333.380,307.200 333.600 C 307.200 333.820,308.100 334.000,309.200 334.000 C 310.300 334.000,311.200 334.180,311.200 334.400 C 311.200 334.645,313.141 334.800,316.224 334.800 C 319.471 334.800,321.160 334.659,321.000 334.400 C 320.860 334.174,321.242 333.970,321.876 333.932 C 322.494 333.894,323.305 333.844,323.679 333.820 C 324.052 333.796,324.487 333.646,324.645 333.488 C 324.804 333.330,325.533 333.200,326.267 333.200 C 327.000 333.200,327.600 333.020,327.600 332.800 C 327.600 332.580,327.870 332.400,328.200 332.400 C 328.530 332.400,328.800 332.220,328.800 332.000 C 328.800 331.780,329.025 331.596,329.300 331.591 C 329.575 331.586,330.250 331.230,330.800 330.800 C 331.350 330.370,332.129 330.014,332.531 330.009 C 332.934 330.004,333.988 329.267,334.875 328.372 C 335.761 327.476,336.827 326.718,337.243 326.687 C 337.659 326.655,338.001 326.353,338.003 326.015 C 338.004 325.677,338.716 324.680,339.583 323.800 C 340.451 322.920,341.170 321.925,341.180 321.588 C 341.191 321.252,341.560 320.717,342.000 320.400 C 342.470 320.061,342.800 319.365,342.800 318.712 C 342.800 318.100,342.935 317.599,343.100 317.597 C 343.547 317.592,344.400 315.574,344.400 314.520 C 344.400 314.014,344.580 313.600,344.800 313.600 C 345.020 313.600,345.200 312.880,345.200 312.000 C 345.200 311.120,345.382 310.400,345.604 310.400 C 345.876 310.400,346.004 282.565,345.994 225.836 L 345.980 141.271 344.730 140.836 C 344.043 140.596,343.462 140.414,343.440 140.432 C 343.418 140.449,343.130 140.565,342.800 140.689 " stroke="none" fill="#91d204" fill-rule="evenodd"></path><path id="path2" d="M73.800 76.188 C 72.920 76.518,71.840 76.793,71.400 76.799 C 70.960 76.805,69.823 77.254,68.874 77.796 C 67.925 78.339,66.407 78.983,65.502 79.226 C 64.597 79.470,63.393 80.157,62.828 80.752 C 62.263 81.347,61.170 82.219,60.400 82.690 C 58.584 83.800,53.600 90.417,53.600 91.718 C 53.600 92.034,53.271 92.721,52.868 93.246 C 51.713 94.751,51.629 95.024,50.423 101.100 C 49.876 103.859,49.894 307.309,50.441 309.400 C 50.672 310.280,50.995 311.720,51.160 312.600 C 52.342 318.913,58.865 327.019,65.400 330.294 C 66.280 330.735,67.630 331.426,68.400 331.830 C 71.728 333.575,81.063 334.331,85.000 333.174 C 85.660 332.980,87.037 332.718,88.060 332.592 C 89.083 332.466,90.326 332.011,90.821 331.581 C 91.317 331.152,91.885 330.800,92.083 330.800 C 93.029 330.800,98.858 326.600,99.618 325.371 C 100.084 324.617,100.714 324.000,101.019 324.000 C 101.323 324.000,101.787 323.595,102.051 323.100 C 102.314 322.605,103.022 321.570,103.624 320.800 C 104.226 320.030,104.848 318.950,105.006 318.400 C 105.165 317.850,105.754 316.410,106.317 315.200 L 107.339 313.000 107.413 250.658 C 107.492 184.218,107.391 187.623,109.293 187.606 C 109.677 187.603,118.072 195.662,128.140 205.700 C 138.125 215.655,148.434 225.901,151.047 228.469 C 156.001 233.336,180.675 258.400,189.000 267.022 C 191.640 269.756,202.800 281.056,213.800 292.132 C 224.800 303.209,235.765 314.281,238.166 316.736 C 240.568 319.191,242.683 321.200,242.866 321.200 C 243.050 321.200,243.200 321.474,243.200 321.809 C 243.200 322.143,243.695 322.637,244.300 322.907 C 244.905 323.176,246.474 324.255,247.787 325.304 C 249.099 326.353,250.764 327.425,251.487 327.686 C 252.209 327.947,252.800 328.305,252.800 328.480 C 252.800 328.656,253.090 328.800,253.446 328.800 C 253.801 328.800,254.746 329.134,255.546 329.542 C 261.122 332.387,268.645 333.988,277.000 334.108 C 284.780 334.220,285.213 333.875,281.390 330.609 C 280.153 329.553,278.391 327.678,277.473 326.444 C 276.555 325.210,275.699 324.110,275.570 324.000 C 275.045 323.552,272.000 318.713,272.000 318.326 C 272.000 318.097,271.666 317.254,271.257 316.454 C 270.459 314.892,269.367 311.038,268.805 307.800 C 268.615 306.700,268.445 296.041,268.429 284.114 C 268.406 266.748,268.289 262.086,267.844 260.714 C 267.538 259.771,267.165 258.466,267.014 257.813 C 265.836 252.697,261.079 247.355,235.953 222.930 C 234.329 221.351,227.060 213.996,219.800 206.586 C 212.540 199.176,203.833 190.298,200.451 186.857 C 197.069 183.415,193.296 179.430,192.066 178.000 C 189.833 175.404,183.574 168.888,173.000 158.151 C 166.026 151.070,154.777 139.325,152.167 136.400 C 151.087 135.190,149.033 133.004,147.602 131.542 C 143.634 127.488,137.649 121.201,135.247 118.564 C 134.062 117.264,131.452 114.480,129.447 112.377 C 127.441 110.274,125.191 107.844,124.447 106.977 C 123.016 105.309,111.906 93.641,105.729 87.319 C 100.358 81.821,93.806 77.200,91.383 77.200 C 90.821 77.200,89.784 76.896,89.080 76.524 C 87.255 75.560,76.126 75.315,73.800 76.188 " stroke="none" fill="#04c4e3" fill-rule="evenodd"></path><path id="path3" d="M73.400 74.400 C 73.264 74.620,72.803 74.800,72.376 74.800 C 71.949 74.800,71.600 74.980,71.600 75.200 C 71.600 75.420,71.006 75.600,70.280 75.600 C 68.901 75.600,66.809 76.383,66.803 76.900 C 66.801 77.065,66.440 77.200,66.000 77.200 C 65.560 77.200,65.200 77.380,65.200 77.600 C 65.200 77.820,64.840 78.000,64.400 78.000 C 63.960 78.000,63.600 78.180,63.600 78.400 C 63.600 78.620,63.304 78.800,62.943 78.800 C 62.582 78.800,61.771 79.340,61.140 80.000 C 60.509 80.660,59.725 81.200,59.397 81.200 C 59.068 81.200,58.800 81.476,58.800 81.813 C 58.800 82.149,58.485 82.542,58.100 82.685 C 57.340 82.967,55.601 84.801,55.600 85.322 C 55.600 85.499,55.061 86.219,54.402 86.922 C 53.743 87.625,53.203 88.343,53.202 88.517 C 53.201 88.691,52.840 89.220,52.400 89.692 C 51.958 90.167,51.600 91.104,51.600 91.787 C 51.600 92.565,51.303 93.237,50.800 93.600 C 50.192 94.038,50.000 94.635,50.000 96.088 C 50.000 97.140,49.820 98.000,49.600 98.000 C 49.380 98.000,49.200 98.619,49.200 99.376 C 49.200 100.133,49.020 100.864,48.800 101.000 C 48.535 101.164,48.400 136.330,48.400 205.200 C 48.400 274.070,48.535 309.236,48.800 309.400 C 49.020 309.536,49.200 310.166,49.200 310.800 C 49.200 311.434,49.380 312.064,49.600 312.200 C 49.820 312.336,50.000 313.213,50.000 314.148 C 50.000 315.296,50.260 316.128,50.800 316.708 C 51.240 317.180,51.600 317.996,51.600 318.521 C 51.600 319.544,52.875 320.992,53.354 320.513 C 53.512 320.354,53.521 320.539,53.374 320.924 C 53.198 321.382,53.398 321.878,53.953 322.359 C 54.419 322.763,54.800 323.323,54.800 323.604 C 54.800 323.884,55.311 324.601,55.935 325.198 C 56.559 325.794,57.183 326.578,57.322 326.941 C 57.461 327.303,57.784 327.600,58.041 327.600 C 58.297 327.600,58.797 327.916,59.153 328.303 C 59.509 328.689,60.295 329.260,60.900 329.570 C 61.505 329.881,62.000 330.285,62.000 330.468 C 62.000 330.650,62.278 330.800,62.617 330.800 C 62.956 330.800,63.620 331.160,64.092 331.600 C 64.564 332.040,65.266 332.400,65.652 332.400 C 66.037 332.400,66.464 332.580,66.600 332.800 C 66.736 333.020,67.199 333.200,67.629 333.200 C 68.059 333.200,68.768 333.380,69.205 333.600 C 69.642 333.820,70.358 334.180,70.795 334.400 C 72.019 335.016,75.474 334.905,75.729 334.241 C 75.949 333.667,75.478 333.512,71.507 332.858 C 70.330 332.663,69.461 332.699,69.207 332.953 C 68.931 333.229,68.800 333.169,68.800 332.766 C 68.800 332.062,66.816 330.828,66.100 331.086 C 65.825 331.186,65.600 331.099,65.600 330.893 C 65.600 330.349,61.682 328.000,60.773 328.000 C 60.348 328.000,60.000 327.744,60.000 327.430 C 60.000 326.904,58.336 324.872,55.416 321.832 C 54.765 321.155,54.194 320.359,54.146 320.065 C 54.099 319.771,53.748 319.185,53.366 318.762 C 52.984 318.340,52.778 317.888,52.909 317.758 C 53.039 317.628,52.765 316.791,52.300 315.898 C 51.835 315.006,51.299 313.448,51.109 312.438 C 50.459 308.976,50.309 308.400,50.055 308.400 C 49.915 308.400,49.800 261.977,49.800 205.238 C 49.800 148.499,49.935 102.160,50.100 102.262 C 50.265 102.364,50.400 101.885,50.400 101.197 C 50.400 100.510,50.579 99.612,50.799 99.202 C 51.018 98.793,51.237 97.558,51.284 96.458 C 51.332 95.358,51.513 94.546,51.686 94.653 C 51.980 94.835,52.166 94.211,52.037 93.470 C 52.006 93.289,52.156 93.249,52.370 93.381 C 52.584 93.514,52.955 93.257,53.194 92.811 C 53.486 92.265,53.493 92.000,53.214 92.000 C 52.511 92.000,52.758 90.867,53.513 90.627 C 53.906 90.503,54.534 89.881,54.910 89.245 C 56.519 86.521,59.257 83.295,60.553 82.597 C 61.322 82.183,61.861 81.698,61.750 81.519 C 61.470 81.067,62.609 80.000,63.371 80.000 C 63.717 80.000,64.360 79.640,64.800 79.200 C 65.681 78.319,66.211 78.135,65.758 78.868 C 65.561 79.187,65.691 79.251,66.167 79.068 C 66.551 78.921,67.025 78.800,67.220 78.800 C 67.415 78.800,67.459 78.499,67.318 78.131 C 67.123 77.623,67.223 77.523,67.731 77.718 C 68.514 78.018,69.683 77.658,69.402 77.203 C 69.296 77.031,69.432 76.898,69.704 76.908 C 71.345 76.967,72.416 76.749,72.200 76.401 C 72.065 76.181,72.279 76.029,72.677 76.064 C 73.950 76.174,74.853 76.009,74.661 75.700 C 74.458 75.373,86.474 75.274,86.800 75.600 C 87.236 76.036,89.600 76.710,89.600 76.398 C 89.600 76.215,89.709 75.781,89.843 75.433 C 90.015 74.983,89.849 74.800,89.266 74.800 C 88.816 74.800,88.336 74.620,88.200 74.400 C 88.050 74.157,85.137 74.000,80.800 74.000 C 76.463 74.000,73.550 74.157,73.400 74.400 M112.612 74.517 C 112.441 74.912,112.413 75.347,112.551 75.484 C 112.957 75.890,113.284 75.320,113.097 74.531 C 112.932 73.833,112.910 73.832,112.612 74.517 M90.284 76.400 C 90.110 77.067,90.272 77.200,91.259 77.200 C 91.910 77.200,93.379 77.715,94.522 78.344 C 95.665 78.973,96.825 79.408,97.100 79.311 C 97.375 79.213,97.600 79.390,97.600 79.705 C 97.600 80.440,102.763 84.242,103.529 84.070 C 103.921 83.982,104.028 84.151,103.858 84.593 C 103.620 85.213,109.215 91.200,110.032 91.200 C 110.205 91.200,110.447 91.515,110.570 91.900 C 110.883 92.879,113.833 96.034,114.144 95.723 C 114.285 95.582,114.400 95.701,114.400 95.987 C 114.400 96.655,116.416 98.397,117.200 98.406 C 117.643 98.411,117.671 98.494,117.307 98.726 C 116.963 98.944,117.494 99.700,119.059 101.219 C 120.294 102.419,122.316 104.562,123.552 105.983 C 124.789 107.404,126.340 109.121,127.000 109.799 C 128.964 111.816,135.983 119.304,139.135 122.744 C 141.188 124.984,142.261 125.875,142.705 125.704 C 143.161 125.530,143.272 125.636,143.101 126.082 C 142.970 126.423,143.044 126.884,143.265 127.105 C 143.724 127.564,145.200 127.291,145.200 126.748 C 145.200 126.210,138.485 119.600,137.939 119.600 C 137.679 119.600,137.581 119.485,137.722 119.345 C 138.130 118.937,136.782 117.301,132.090 112.509 C 129.672 110.040,127.588 107.745,127.459 107.409 C 127.330 107.074,126.949 106.800,126.613 106.800 C 126.267 106.800,126.000 106.452,126.000 106.000 C 126.000 105.483,125.733 105.200,125.247 105.200 C 124.830 105.200,124.400 104.843,124.284 104.400 C 124.169 103.960,123.788 103.600,123.437 103.600 C 123.087 103.600,122.796 103.375,122.791 103.100 C 122.776 102.332,120.161 99.600,119.439 99.600 C 119.088 99.600,118.800 99.345,118.800 99.034 C 118.800 98.722,117.000 96.637,114.800 94.400 C 112.600 92.163,110.800 90.185,110.800 90.005 C 110.800 89.511,102.449 81.200,101.953 81.200 C 101.715 81.200,101.041 80.705,100.455 80.100 C 99.459 79.072,97.583 78.014,94.500 76.741 C 93.785 76.446,93.200 76.069,93.200 75.902 C 93.200 75.152,90.490 75.614,90.284 76.400 M333.200 75.904 C 333.200 76.071,333.560 76.432,334.000 76.707 C 334.930 77.288,335.054 76.997,334.229 76.171 C 333.598 75.541,333.200 75.437,333.200 75.904 M111.867 76.667 C 111.501 77.032,111.529 78.800,111.900 78.800 C 112.065 78.800,112.200 78.260,112.200 77.600 C 112.200 76.940,112.185 76.400,112.167 76.400 C 112.148 76.400,112.013 76.520,111.867 76.667 M113.230 80.682 C 115.081 82.747,115.239 82.894,115.414 82.720 C 115.636 82.497,113.001 79.600,112.576 79.600 C 112.403 79.600,112.697 80.087,113.230 80.682 M138.000 107.100 C 138.000 107.269,138.360 107.632,138.800 107.907 C 139.240 108.182,139.600 108.269,139.600 108.100 C 139.600 107.931,139.240 107.568,138.800 107.293 C 138.360 107.018,138.000 106.931,138.000 107.100 M140.893 110.000 C 141.362 110.751,142.000 111.080,142.000 110.571 C 142.000 110.273,140.925 109.200,140.625 109.200 C 140.498 109.200,140.618 109.560,140.893 110.000 M155.600 125.343 C 155.600 125.756,157.612 127.722,157.820 127.513 C 157.914 127.419,157.454 126.826,156.796 126.196 C 156.138 125.566,155.600 125.182,155.600 125.343 M144.639 127.937 C 144.395 128.331,151.002 135.200,151.625 135.200 C 151.857 135.200,151.942 135.371,151.813 135.579 C 151.684 135.788,153.788 138.238,156.489 141.025 C 159.190 143.811,162.750 147.541,164.400 149.312 C 169.320 154.594,173.281 158.400,173.858 158.400 C 174.156 158.400,174.400 158.682,174.400 159.026 C 174.400 159.692,176.745 161.868,177.281 161.700 C 177.457 161.645,177.600 161.878,177.600 162.217 C 177.600 163.287,180.445 166.060,181.038 165.568 C 181.897 164.855,181.311 164.114,174.431 157.212 C 170.784 153.553,167.170 149.719,166.400 148.692 C 165.630 147.665,164.685 146.819,164.300 146.812 C 163.915 146.806,163.600 146.529,163.600 146.198 C 163.600 145.867,160.921 142.901,157.646 139.607 C 154.372 136.313,151.587 133.344,151.459 133.009 C 151.330 132.674,150.970 132.400,150.659 132.400 C 150.348 132.400,149.999 132.040,149.884 131.600 C 149.769 131.160,149.388 130.800,149.037 130.800 C 148.687 130.800,148.400 130.513,148.400 130.163 C 148.400 129.812,148.040 129.431,147.600 129.316 C 147.157 129.200,146.800 128.770,146.800 128.353 C 146.800 127.573,145.070 127.240,144.639 127.937 M336.900 132.198 C 336.157 133.042,336.294 133.273,337.200 132.707 C 337.640 132.432,338.000 132.071,338.000 131.904 C 338.000 131.427,337.449 131.575,336.900 132.198 M223.283 145.901 C 222.559 146.671,222.053 147.387,222.159 147.493 C 222.348 147.681,223.664 146.461,224.749 145.093 C 225.725 143.861,224.640 144.459,223.283 145.901 M323.402 157.998 C 323.003 158.439,322.807 158.800,322.967 158.800 C 323.388 158.800,324.528 157.595,324.312 157.379 C 324.211 157.278,323.802 157.556,323.402 157.998 M181.488 165.986 C 181.333 166.577,182.120 167.594,184.656 170.086 C 186.512 171.909,189.437 175.020,191.157 177.000 C 192.877 178.980,197.055 183.415,200.442 186.857 C 203.829 190.298,212.540 199.176,219.800 206.586 C 227.060 213.996,234.349 221.351,235.998 222.930 C 237.647 224.508,241.292 228.140,244.098 231.000 C 246.904 233.860,249.425 236.200,249.700 236.200 C 249.975 236.200,250.200 236.409,250.200 236.665 C 250.200 237.116,255.770 242.829,256.190 242.810 C 256.306 242.804,256.418 242.935,256.440 243.100 C 256.462 243.265,257.714 244.570,259.223 246.000 C 260.732 247.430,262.667 249.542,263.524 250.693 C 264.380 251.844,265.208 252.659,265.362 252.505 C 265.516 252.351,265.523 252.535,265.377 252.915 C 265.094 253.652,266.142 255.600,266.822 255.600 C 267.720 255.600,267.630 254.269,266.587 252.137 C 265.208 249.319,242.018 225.754,241.006 226.142 C 240.620 226.290,240.203 225.985,239.838 225.286 C 239.525 224.689,237.564 222.557,235.481 220.550 C 233.397 218.542,229.040 214.132,225.798 210.750 C 222.556 207.367,219.636 204.501,219.308 204.380 C 218.981 204.258,218.499 203.758,218.236 203.268 C 217.974 202.778,213.077 197.657,207.354 191.889 C 191.979 176.391,192.343 176.873,194.381 174.693 C 195.031 173.998,195.486 173.353,195.393 173.260 C 195.300 173.166,194.696 173.655,194.051 174.345 C 192.704 175.787,191.785 175.950,191.484 174.800 C 191.369 174.360,190.988 174.000,190.637 174.000 C 190.267 174.000,190.000 173.665,190.000 173.200 C 190.000 172.748,189.733 172.400,189.387 172.400 C 189.051 172.400,188.674 172.137,188.550 171.815 C 188.251 171.034,184.188 166.958,183.413 166.660 C 183.076 166.531,182.800 166.149,182.800 165.813 C 182.800 164.920,181.729 165.062,181.488 165.986 M197.867 170.667 C 197.048 171.462,196.461 172.195,196.563 172.296 C 196.664 172.397,197.407 171.820,198.213 171.013 C 199.020 170.207,199.607 169.473,199.517 169.384 C 199.428 169.295,198.685 169.872,197.867 170.667 M284.064 184.269 C 282.009 186.355,280.416 188.149,280.523 188.256 C 280.712 188.445,288.400 180.957,288.400 180.585 C 288.400 180.027,287.436 180.846,284.064 184.269 M108.044 187.965 C 107.573 188.263,107.476 197.913,107.413 250.658 L 107.339 313.000 106.289 315.232 C 105.613 316.669,105.324 317.808,105.479 318.432 C 105.610 318.964,105.574 319.268,105.399 319.106 C 104.987 318.727,104.029 319.983,104.013 320.924 C 104.006 321.322,103.820 321.536,103.600 321.400 C 103.380 321.264,102.823 321.794,102.361 322.577 C 101.899 323.359,101.293 324.000,101.014 324.000 C 100.498 324.000,98.159 327.172,98.304 327.675 C 98.347 327.825,98.072 327.929,97.692 327.905 C 97.311 327.880,95.974 328.522,94.719 329.330 C 93.465 330.139,92.277 330.800,92.080 330.800 C 91.884 330.800,91.317 331.152,90.821 331.581 C 90.326 332.011,89.083 332.472,88.060 332.606 C 85.091 332.993,82.933 333.692,82.933 334.268 C 82.933 334.946,86.429 334.998,87.705 334.338 C 89.626 333.344,90.016 333.200,90.771 333.200 C 91.201 333.200,91.664 333.020,91.800 332.800 C 91.936 332.580,92.363 332.400,92.748 332.400 C 93.134 332.400,93.836 332.040,94.308 331.600 C 94.780 331.160,95.444 330.800,95.783 330.800 C 96.122 330.800,96.400 330.650,96.400 330.468 C 96.400 330.285,96.880 329.880,97.466 329.568 C 99.012 328.745,103.600 324.145,103.600 323.418 C 103.600 323.078,103.876 322.800,104.213 322.800 C 104.549 322.800,104.939 322.485,105.078 322.100 C 105.217 321.715,105.661 320.922,106.065 320.338 C 106.469 319.754,106.800 318.809,106.800 318.238 C 106.800 317.667,106.935 317.199,107.100 317.197 C 107.697 317.191,108.400 314.999,108.400 313.144 C 108.400 312.101,108.580 311.136,108.800 311.000 C 109.064 310.837,109.200 290.196,109.200 250.376 C 109.200 217.169,109.304 190.000,109.431 190.000 C 109.559 190.000,110.372 190.738,111.238 191.640 C 112.209 192.650,113.042 193.193,113.407 193.053 C 113.832 192.889,114.000 193.104,114.000 193.813 C 114.000 194.533,114.216 194.800,114.800 194.800 C 115.333 194.800,115.600 195.067,115.600 195.600 C 115.600 196.133,115.867 196.400,116.400 196.400 C 116.840 196.400,117.200 196.648,117.200 196.951 C 117.200 197.723,123.256 203.586,124.063 203.594 C 124.527 203.598,124.663 203.839,124.516 204.400 C 124.355 205.014,124.504 205.200,125.153 205.200 C 125.733 205.200,126.000 205.452,126.000 206.000 C 126.000 206.578,126.267 206.800,126.963 206.800 C 127.728 206.800,127.882 206.964,127.716 207.600 C 127.538 208.279,127.710 208.405,128.853 208.432 C 129.594 208.449,129.975 208.554,129.700 208.665 C 128.696 209.070,134.446 215.600,135.808 215.600 C 136.134 215.600,136.400 215.960,136.400 216.400 C 136.400 216.933,136.667 217.200,137.200 217.200 C 137.733 217.200,138.000 217.467,138.000 218.000 C 138.000 218.533,138.267 218.800,138.800 218.800 C 139.240 218.800,139.600 219.049,139.600 219.353 C 139.600 219.657,140.752 221.038,142.161 222.422 C 143.569 223.807,144.639 225.155,144.537 225.419 C 144.417 225.733,144.672 225.837,145.277 225.721 C 146.047 225.574,148.006 227.360,157.001 236.405 C 162.940 242.379,169.036 248.466,170.547 249.933 C 172.058 251.400,173.678 253.050,174.147 253.600 C 176.634 256.514,191.926 271.716,192.668 272.011 C 193.281 272.254,193.475 272.591,193.327 273.156 C 193.121 273.946,196.641 278.000,197.534 278.000 C 197.739 278.000,198.001 278.360,198.116 278.800 C 198.231 279.240,198.612 279.600,198.963 279.600 C 199.313 279.600,199.600 279.864,199.600 280.186 C 199.600 280.508,199.960 280.965,200.400 281.200 C 200.840 281.435,201.200 281.785,201.200 281.977 C 201.200 282.454,206.998 288.237,207.775 288.535 C 208.119 288.667,208.400 289.051,208.400 289.387 C 208.400 289.733,208.748 290.000,209.200 290.000 C 209.733 290.000,210.000 290.267,210.000 290.800 C 210.000 291.252,210.267 291.600,210.613 291.600 C 210.949 291.600,211.336 291.889,211.472 292.242 C 211.853 293.236,219.198 300.400,219.835 300.400 C 220.146 300.400,220.400 300.760,220.400 301.200 C 220.400 301.733,220.667 302.000,221.200 302.000 C 221.640 302.000,222.000 302.257,222.000 302.571 C 222.000 303.175,228.250 309.621,229.856 310.674 C 230.375 311.014,230.800 311.541,230.800 311.846 C 230.800 312.151,231.160 312.400,231.600 312.400 C 232.040 312.400,232.400 312.636,232.400 312.924 C 232.400 313.536,238.553 319.957,240.128 320.990 C 240.718 321.376,241.200 321.941,241.200 322.246 C 241.200 322.551,241.560 322.800,242.000 322.800 C 242.533 322.800,242.800 323.067,242.800 323.600 C 242.800 324.097,243.067 324.400,243.504 324.400 C 243.891 324.400,244.432 324.760,244.707 325.200 C 244.982 325.640,245.544 326.000,245.957 326.000 C 246.370 326.000,246.801 326.359,246.916 326.800 C 247.033 327.247,247.462 327.600,247.887 327.600 C 248.306 327.600,249.036 327.960,249.508 328.400 C 249.980 328.840,250.644 329.200,250.983 329.200 C 251.322 329.200,251.600 329.336,251.600 329.502 C 251.600 329.669,252.185 330.042,252.900 330.333 C 253.615 330.623,254.892 331.207,255.738 331.630 C 256.584 332.054,257.619 332.400,258.038 332.400 C 258.457 332.400,258.800 332.580,258.800 332.800 C 258.800 333.020,259.419 333.200,260.176 333.200 C 260.933 333.200,261.664 333.380,261.800 333.600 C 261.936 333.820,262.577 334.000,263.224 334.000 C 263.871 334.000,264.400 334.180,264.400 334.400 C 264.400 335.027,268.676 334.900,268.919 334.266 C 269.060 333.900,268.537 333.589,267.262 333.279 C 263.803 332.438,262.400 332.287,262.400 332.755 C 262.400 333.474,261.710 333.264,261.506 332.484 C 261.403 332.090,260.570 331.474,259.655 331.114 C 258.739 330.755,258.093 330.627,258.219 330.830 C 258.681 331.578,257.480 331.170,256.302 330.179 C 255.634 329.617,254.822 329.260,254.496 329.385 C 254.170 329.510,253.611 329.275,253.252 328.863 C 252.893 328.451,252.201 327.988,251.713 327.834 C 251.225 327.680,249.740 326.755,248.412 325.777 C 247.084 324.800,245.820 324.000,245.602 324.000 C 245.005 324.000,243.200 322.325,243.200 321.771 C 243.200 321.232,242.074 320.630,241.300 320.754 C 241.025 320.799,240.800 320.467,240.800 320.018 C 240.800 319.453,240.539 319.200,239.957 319.200 C 239.406 319.200,239.187 319.010,239.326 318.649 C 239.611 317.907,238.851 317.206,238.082 317.501 C 237.632 317.673,237.529 317.561,237.710 317.091 C 238.005 316.322,214.362 292.331,213.516 292.541 C 213.232 292.611,213.154 292.587,213.343 292.487 C 213.531 292.387,212.370 290.980,210.761 289.361 C 208.660 287.246,207.736 286.555,207.481 286.908 C 207.242 287.237,207.203 287.159,207.361 286.671 C 207.541 286.116,205.942 284.270,200.699 278.976 C 196.904 275.145,191.640 269.770,189.000 267.031 C 181.012 258.742,156.116 233.449,151.045 228.469 C 148.430 225.901,138.118 215.655,128.130 205.700 C 110.812 188.440,109.342 187.142,108.044 187.965 M290.602 190.798 C 290.203 191.239,290.007 191.600,290.167 191.600 C 290.588 191.600,291.728 190.395,291.512 190.179 C 291.411 190.078,291.002 190.356,290.602 190.798 M274.863 193.471 C 273.468 194.894,272.422 196.155,272.539 196.272 C 272.734 196.467,278.000 191.351,278.000 190.967 C 278.000 190.462,277.137 191.151,274.863 193.471 M269.708 198.708 C 268.250 200.335,268.210 200.959,269.658 199.497 C 271.109 198.031,271.733 197.197,271.349 197.234 C 271.157 197.252,270.419 197.916,269.708 198.708 M262.482 205.886 C 259.998 208.423,258.045 210.579,258.144 210.677 C 258.316 210.850,267.600 201.710,267.600 201.368 C 267.600 200.811,266.518 201.766,262.482 205.886 M138.064 231.862 C 136.229 233.732,134.817 235.351,134.926 235.460 C 135.099 235.632,142.000 228.870,142.000 228.529 C 142.000 228.028,140.970 228.901,138.064 231.862 M129.663 240.259 C 128.487 241.469,127.597 242.531,127.685 242.618 C 127.857 242.790,132.400 238.533,132.400 238.200 C 132.400 237.660,131.613 238.253,129.663 240.259 M122.292 251.842 C 122.131 252.002,122.000 252.409,122.000 252.747 C 122.000 253.197,122.118 253.242,122.445 252.915 C 122.690 252.670,122.821 252.263,122.737 252.010 C 122.652 251.757,122.452 251.681,122.292 251.842 M267.043 256.232 C 266.573 257.458,267.782 261.200,268.649 261.200 C 269.044 261.200,269.200 260.633,269.200 259.200 C 269.200 258.100,269.020 257.200,268.800 257.200 C 268.580 257.200,268.400 256.840,268.400 256.400 C 268.400 255.451,267.391 255.326,267.043 256.232 M121.600 281.880 C 121.490 295.784,121.536 307.024,121.703 306.857 C 121.870 306.690,121.960 295.314,121.903 281.577 L 121.800 256.600 121.600 281.880 M268.400 284.415 C 268.566 303.330,268.695 307.288,269.157 307.574 C 269.499 307.785,269.624 308.264,269.482 308.810 C 268.991 310.684,271.627 318.678,272.547 318.109 C 272.763 317.976,272.831 318.240,272.704 318.723 C 272.557 319.286,272.805 319.920,273.441 320.607 C 273.969 321.176,274.400 321.890,274.400 322.194 C 274.400 322.497,274.760 322.860,275.200 323.000 C 275.640 323.140,276.000 323.602,276.000 324.027 C 276.000 324.452,276.180 324.800,276.400 324.800 C 276.620 324.800,276.800 325.039,276.800 325.332 C 276.800 326.156,281.243 330.869,281.814 330.650 C 282.093 330.543,282.424 330.758,282.549 331.128 C 282.674 331.497,282.989 332.088,283.248 332.440 C 284.151 333.664,282.961 335.406,281.247 335.370 C 280.451 335.353,279.260 335.458,278.600 335.603 L 277.400 335.867 278.903 336.178 C 280.337 336.476,281.105 336.410,283.793 335.760 C 286.950 334.996,286.858 332.260,283.600 330.000 C 281.834 328.775,278.001 324.839,277.996 324.246 C 277.994 324.001,277.454 323.375,276.796 322.855 C 276.138 322.335,275.600 321.610,275.600 321.243 C 275.600 320.877,275.240 320.317,274.800 320.000 C 274.360 319.683,274.000 319.047,274.000 318.587 C 274.000 318.127,273.640 317.364,273.200 316.892 C 272.760 316.420,272.400 315.576,272.400 315.017 C 272.400 314.458,272.220 314.000,272.000 314.000 C 271.780 314.000,271.600 313.655,271.600 313.233 C 271.600 312.812,271.392 312.397,271.138 312.313 C 270.844 312.215,270.702 311.266,270.749 309.710 C 270.789 308.363,270.637 307.147,270.411 307.007 C 270.138 306.838,270.000 299.358,270.000 284.656 C 270.000 262.370,269.954 261.600,268.620 261.600 C 268.329 261.600,268.262 268.620,268.400 284.415 M163.677 303.085 C 162.289 304.516,161.241 305.775,161.349 305.882 C 161.513 306.047,165.089 302.580,166.468 300.919 C 167.756 299.366,165.845 300.850,163.677 303.085 M155.012 311.812 C 152.221 314.594,150.006 316.939,150.090 317.023 C 150.173 317.106,152.536 314.910,155.341 312.141 C 158.146 309.373,160.361 307.028,160.263 306.930 C 160.166 306.832,157.802 309.029,155.012 311.812 M144.887 321.209 C 144.419 321.959,144.441 321.981,145.191 321.513 C 145.636 321.235,146.000 320.871,146.000 320.704 C 146.000 320.126,145.391 320.403,144.887 321.209 M112.671 325.526 C 112.082 326.141,111.600 326.796,111.600 326.981 C 111.600 327.167,112.155 326.737,112.834 326.027 C 113.513 325.317,113.995 324.662,113.905 324.572 C 113.815 324.482,113.260 324.911,112.671 325.526 M284.480 333.680 C 284.107 334.053,284.000 333.947,284.000 333.200 C 284.000 332.453,284.107 332.347,284.480 332.720 C 284.853 333.093,284.853 333.307,284.480 333.680 M270.000 334.320 C 270.000 335.624,276.845 336.303,277.326 335.047 C 277.475 334.661,277.097 334.422,276.069 334.252 C 273.946 333.901,270.000 333.945,270.000 334.320 M280.100 334.676 C 280.485 334.776,281.115 334.776,281.500 334.676 C 281.885 334.575,281.570 334.493,280.800 334.493 C 280.030 334.493,279.715 334.575,280.100 334.676 " stroke="none" fill="#45b9ca" fill-rule="evenodd"></path><path id="path4" d="M89.600 76.200 C 89.600 76.530,89.780 76.800,90.000 76.800 C 90.220 76.800,90.400 76.530,90.400 76.200 C 90.400 75.870,90.220 75.600,90.000 75.600 C 89.780 75.600,89.600 75.870,89.600 76.200 M62.100 80.598 C 61.531 81.245,61.461 81.600,61.904 81.600 C 62.071 81.600,62.432 81.240,62.707 80.800 C 63.278 79.887,62.851 79.745,62.100 80.598 M53.300 90.665 C 52.734 90.893,52.612 92.000,53.153 92.000 C 53.348 92.000,53.601 91.640,53.716 91.200 C 53.831 90.760,53.897 90.414,53.863 90.432 C 53.828 90.449,53.575 90.554,53.300 90.665 M192.460 272.380 C 192.548 272.644,192.751 272.847,192.910 272.830 C 193.388 272.781,193.296 272.232,192.780 272.060 C 192.516 271.972,192.372 272.116,192.460 272.380 M268.800 308.624 C 268.800 309.204,268.973 309.540,269.200 309.400 C 269.420 309.264,269.600 308.803,269.600 308.376 C 269.600 307.949,269.420 307.600,269.200 307.600 C 268.980 307.600,268.800 308.061,268.800 308.624 M257.000 330.800 C 257.136 331.020,257.517 331.200,257.847 331.200 C 258.177 331.200,258.336 331.020,258.200 330.800 C 258.064 330.580,257.683 330.400,257.353 330.400 C 257.023 330.400,256.864 330.580,257.000 330.800 M261.600 332.600 C 261.600 332.930,261.780 333.200,262.000 333.200 C 262.220 333.200,262.400 332.930,262.400 332.600 C 262.400 332.270,262.220 332.000,262.000 332.000 C 261.780 332.000,261.600 332.270,261.600 332.600 M284.000 333.200 C 284.000 333.947,284.107 334.053,284.480 333.680 C 284.853 333.307,284.853 333.093,284.480 332.720 C 284.107 332.347,284.000 332.453,284.000 333.200 M75.790 333.943 C 75.120 334.613,76.044 334.816,79.300 334.715 C 81.335 334.652,82.955 334.457,82.901 334.283 C 82.794 333.943,76.109 333.624,75.790 333.943 M269.056 333.878 C 268.605 334.328,268.781 334.800,269.400 334.800 C 269.730 334.800,270.000 334.631,270.000 334.424 C 270.000 333.919,269.375 333.558,269.056 333.878 M277.428 334.705 C 276.766 335.367,277.474 335.586,279.997 335.498 C 281.535 335.444,282.794 335.220,282.795 335.000 C 282.798 334.581,277.825 334.308,277.428 334.705 " stroke="none" fill="#30a4b4" fill-rule="evenodd"></path></g></svg>